<svg viewBox="0 0 32 32" xmlns="http://www.w3.org/2000/svg" aria-hidden="true" role="presentation" focusable="false" style="display: block; height: 24px; width: 24px; fill: currentcolor;"><path d="M18 1v2h-7v2h1a2 2 0 0 1 1.995 1.85L14 7l.001 2.1a5.002 5.002 0 0 1 3.994 4.674L18 14v14a3 3 0 0 1-2.824 2.995L15 31H5a3 3 0 0 1-2.995-2.824L2 28V14a5.002 5.002 0 0 1 4-4.9V7a2 2 0 0 1 1.85-1.995L8 5h1V3H6V1h12zm-2 15.058c-1.143.147-2.085.595-3.577 1.552l-.348.225C9.64 19.424 8.293 19.995 6 19.995a9.003 9.003 0 0 1-2-.217V28a1 1 0 0 0 .883.993L5 29h10a1 1 0 0 0 .993-.883L16 28V16.058zM27 13a3 3 0 1 1 0 6 3 3 0 0 1 0-6zm-14-2H7a3 3 0 0 0-2.995 2.824L4 14v3.711a6.846 6.846 0 0 0 2 .284c1.633 0 2.64-.361 4.4-1.462l.638-.41c2.016-1.315 3.277-1.922 4.962-2.08V14a3 3 0 0 0-3-3zm14 4a1 1 0 1 0 0 2 1 1 0 0 0 0-2zM25 2a4 4 0 1 1 0 8 4 4 0 0 1 0-8zM12 7H8v2h4V7zm13-3a2 2 0 1 0 0 4 2 2 0 0 0 0-4z"/></svg>