<svg viewBox="0 0 32 32" xmlns="http://www.w3.org/2000/svg" aria-hidden="true" role="presentation" focusable="false" style="display: block; height: 24px; width: 24px; fill: currentcolor;"><path d="M24 1a5 5 0 0 1 4.995 4.783L29 6v20a5 5 0 0 1-4.783 4.995L24 31h-5v-2h5a3 3 0 0 0 2.995-2.824L27 26V6a3 3 0 0 0-2.824-2.995L24 3H8a3 3 0 0 0-2.995 2.824L5 6v20a3 3 0 0 0 2.824 2.995L8 29h7v-8h-2a2 2 0 0 1-1.995-1.85L11 19v-6a2 2 0 0 1 1.85-1.995L13 11h6a2 2 0 0 1 1.995 1.85L21 13v6a2 2 0 0 1-1.85 1.995L19 21h-2v8a2 2 0 0 1-1.85 1.995L15 31H8a5 5 0 0 1-4.995-4.783L3 26V6a5 5 0 0 1 4.783-4.995L8 1zm-5 12h-6v6h2v-4h2v4h2z"/></svg>