<svg viewBox="0 0 32 32" xmlns="http://www.w3.org/2000/svg" aria-hidden="true" role="presentation" focusable="false" style="display: block; height: 24px; width: 24px; fill: currentcolor;"><path d="M19.586 2a2 2 0 0 1 1.284.467l.13.119L29.414 11a2 2 0 0 1 .578 1.238l.008.176V25a5 5 0 0 1-4.783 4.995L25 30H4a2 2 0 0 1-1.995-1.85L2 28V7a5 5 0 0 1 4.783-4.995L7 2zM7 4a3 3 0 0 0-2.995 2.824L4 7v14a3 3 0 0 0 2.824 2.995L7 24h19v2H7a4.978 4.978 0 0 1-3-1v3h21a3 3 0 0 0 2.995-2.824L28 25v-3H6v-2h22v-6h-5a5 5 0 0 1-4.995-4.783L18 9V4zm20.586 8L20 4.415V9a3 3 0 0 0 2.824 2.995L23 12z"/></svg>