<svg viewBox="0 0 32 32" xmlns="http://www.w3.org/2000/svg" aria-hidden="true" role="presentation" focusable="false" style="display: block; height: 24px; width: 24px; fill: currentcolor;"><path d="M16 2a5 5 0 0 1 1.661 9.717 1.002 1.002 0 0 0-.653.816l-.008.126v.813l13.23 9.052a3 3 0 0 1 1.299 2.279l.006.197a3 3 0 0 1-3 3H3.465a3 3 0 0 1-1.694-5.476L15 13.472v-.813c0-1.211.724-2.285 1.816-2.757l.176-.07a3 3 0 1 0-3.987-3.008L13 7h-2a5 5 0 0 1 5-5zm0 13.211L2.9 24.175A1 1 0 0 0 3.465 26h25.07a1 1 0 0 0 .565-1.825z"/></svg>