<svg viewBox="0 0 32 32" xmlns="http://www.w3.org/2000/svg" aria-hidden="true" role="presentation" focusable="false" style="display: block; height: 24px; width: 24px; fill: currentcolor;"><path d="M30 29v2H2v-2zM20 1a2 2 0 0 1 1.995 1.85L22 3v2h3a5 5 0 0 1 4.995 4.783L30 10v12a5 5 0 0 1-4.783 4.995L25 27H7a5 5 0 0 1-4.995-4.783L2 22V10a5 5 0 0 1 4.783-4.995L7 5h3V3a2 2 0 0 1 1.85-1.995L12 1zm5 6H7a3 3 0 0 0-2.995 2.824L4 10v12a3 3 0 0 0 2.824 2.995L7 25h18a3 3 0 0 0 2.995-2.824L28 22V10a3 3 0 0 0-3-3zm-8 2v9.5l3.293-3.293 1.414 1.414-4.646 4.647-.114.103a1.5 1.5 0 0 1-1.894 0l-.114-.103-4.646-4.647 1.414-1.414L15 18.5V9zm3-6h-8v2h8z"/></svg>