<svg viewBox="0 0 32 32" xmlns="http://www.w3.org/2000/svg" aria-hidden="true" role="presentation" focusable="false" style="display: block; height: 24px; width: 24px; fill: currentcolor;"><path d="M26 28v2H6v-2h20zM16 1a8.638 8.638 0 0 1 7.834 5H28a1 1 0 0 1 .997 1.076c-.295 3.873-1.576 6.45-3.894 7.564l.893 10.273a1 1 0 0 1-.88 1.08L25 26H7a1 1 0 0 1-1-.971l.004-.116L7.397 8.887c.026-.3.068-.597.124-.887H5a1 1 0 0 0-.993.883L4 9v10H2V9a3 3 0 0 1 2.824-2.995L5 6h3.165A8.638 8.638 0 0 1 16 1zm6.431 7H9.57a6.647 6.647 0 0 0-.138.7l-.041.36L8.09 24h15.819L22.61 9.06A6.67 6.67 0 0 0 22.431 8zm-5.45 3c-.147 2.02-1.163 4.144-2.7 5.783l-.231.238a6.96 6.96 0 0 0-1.984 3.98h-2.015a8.956 8.956 0 0 1 2.356-5.158l.228-.236c1.304-1.304 2.18-3.034 2.339-4.607h2.007zm4 0c.013.166.019.333.019.5-.001 2.164-1.054 4.508-2.72 6.283l-.23.238A6.967 6.967 0 0 0 16.28 21h-2.064a8.955 8.955 0 0 1 2.191-4.157l.228-.236C18.08 15.163 19 13.196 19 11.499a4.94 4.94 0 0 0-.026-.5h2.008zm5.907-3h-2.409c.04.207.073.418.098.63l.026.257.306 3.518c.98-.792 1.634-2.165 1.946-4.18L26.888 8zM16 3a6.633 6.633 0 0 0-5.552 3h11.104a6.635 6.635 0 0 0-5.043-2.98l-.275-.016L16 3z"/></svg>