<svg viewBox="0 0 32 32" xmlns="http://www.w3.org/2000/svg" aria-hidden="true" role="presentation" focusable="false" style="display: block; height: 24px; width: 24px; fill: currentcolor;"><path d="M29 1v2c-7.18 0-13 5.82-13 13 0 7.077 5.655 12.833 12.693 12.996L29 29v2c-8.284 0-15-6.716-15-15 0-8.18 6.547-14.83 14.686-14.997zM3 1h2v6h2V1h2v6h2V1h2v9a5.002 5.002 0 0 1-3.999 4.9L9 31H7V14.9a5.01 5.01 0 0 1-3.978-4.444l-.017-.232L3 10zm26 6v2a7 7 0 0 0-.24 13.996L29 23v2a9 9 0 0 1-.265-17.996zM10.999 9h-6v.975l.005.176a3 3 0 0 0 5.99.025L11 10z"/></svg>