<svg viewBox="0 0 32 32" xmlns="http://www.w3.org/2000/svg" aria-hidden="true" role="presentation" focusable="false" style="display: block; height: 24px; width: 24px; fill: currentcolor;"><path d="M3 4v4h26V4h2v17a5 5 0 0 1-2.777 4.48l2.38 4.52h-2.26l-2.11-4.005L26 26H6l-.234-.005-2.11 4.004H1.397l2.38-4.519a5 5 0 0 1-2.772-4.263L1 21V4zm11.602 6.349a3 3 0 0 0-1.143 1.06l-.113.196L6.816 24h18.367l-6.529-12.395a3 3 0 0 0-4.052-1.256zm-2.6-.349H3v11a3 3 0 0 0 1.71 2.71l6.866-13.037a5 5 0 0 1 .426-.673zM29 10h-9.002c.113.15.218.308.315.473l.11.2L27.29 23.71a3.001 3.001 0 0 0 1.705-2.533L29 21z"/></svg>