<svg viewBox="0 0 32 32" xmlns="http://www.w3.org/2000/svg" aria-hidden="true" role="presentation" focusable="false" style="display: block; height: 24px; width: 24px; fill: currentcolor;"><path d="M27 0a2 2 0 0 1 1.995 1.85L29 2v26a2 2 0 0 1-1.85 1.995L27 30H5a2 2 0 0 1-1.995-1.85L3 28V2A2 2 0 0 1 4.85.005L5 0zm0 2H5v26h22zm-3 22a1 1 0 1 1 0 2 1 1 0 0 1 0-2zm-5.333 0a1 1 0 1 1 0 2 1 1 0 0 1 0-2zm-5.334 0a1 1 0 1 1 0 2 1 1 0 0 1 0-2zM8 24a1 1 0 1 1 0 2 1 1 0 0 1 0-2zm13-10a4 4 0 1 1 0 8 4 4 0 0 1 0-8zm-10 0a4 4 0 1 1 0 8 4 4 0 0 1 0-8zm10 2a2 2 0 1 0 0 4 2 2 0 0 0 0-4zm-10 0a2 2 0 1 0 0 4 2 2 0 0 0 0-4zM21 4a4 4 0 1 1 0 8 4 4 0 0 1 0-8zM11 4a4 4 0 1 1 0 8 4 4 0 0 1 0-8zm10 2a2 2 0 1 0 0 4 2 2 0 0 0 0-4zM11 6a2 2 0 1 0 0 4 2 2 0 0 0 0-4z"/></svg>