<svg viewBox="0 0 32 32" xmlns="http://www.w3.org/2000/svg" aria-hidden="true" role="presentation" focusable="false" style="display: block; height: 24px; width: 24px; fill: currentcolor;"><path d="m11.6667 0-.00095 1.666h8.667l.00055-1.666h2l-.00055 1.666 6.00065.00063c1.0543745 0 1.9181663.81587127 1.9945143 1.85073677l.0054857.14926323v15.91907c0 .4715696-.1664445.9258658-.4669028 1.2844692l-.1188904.1298308-8.7476886 8.7476953c-.3334303.3332526-.7723097.5367561-1.2381975.5778649l-.1758207.0077398h-12.91915c-2.68874373 0-4.88181754-2.1223321-4.99538046-4.7831124l-.00461954-.2168876v-21.66668c0-1.05436021.81587582-1.91815587 1.85073739-1.99450431l.14926261-.00548569 5.999-.00063.00095-1.666zm16.66605 11.666h-24.666v13.6673c0 1.5976581 1.24893332 2.9036593 2.82372864 2.9949072l.17627136.0050928 10.999-.0003.00095-5.6664c0-2.6887355 2.122362-4.8818171 4.7832071-4.9953804l.2168929-.0046196 5.66595-.0006zm-.081 8-5.58495.0006c-1.5977285 0-2.9037573 1.2489454-2.9950071 2.8237299l-.0050929.1762701-.00095 5.5864zm-18.586-16-5.999.00062v5.99938h24.666l.00065-5.99938-6.00065-.00062.00055 1.66733h-2l-.00055-1.66733h-8.667l.00095 1.66733h-2z"/></svg>