<svg viewBox="0 0 32 32" xmlns="http://www.w3.org/2000/svg" aria-hidden="true" role="presentation" focusable="false" style="display: block; height: 24px; width: 24px; fill: currentcolor;"><path d="M2 6.242l2 2V28h19.757l2 2H4a2 2 0 0 1-1.995-1.85L2 28V6.242zm1.707-3.95l26 26-1.414 1.415-26-26 1.414-1.414zM28 2a2 2 0 0 1 1.994 1.85L30 4v21.757l-2-2V4H8.242L6.236 2.005 28 2zM7.877 12.12l2.383 2.38h-.101c-.342 0-.68.024-1.014.073a7 7 0 0 0 9.207 8.022l1.527 1.528A9 9 0 0 1 7.877 12.12zM16 7a9 9 0 0 1 8.123 12.88l-2.695-2.694h.04c.493 0 .98-.05 1.456-.151a7 7 0 0 0-9.277-7.63L12.12 7.877A8.965 8.965 0 0 1 16 7z"/></svg>