<svg viewBox="0 0 32 32" xmlns="http://www.w3.org/2000/svg" aria-hidden="true" role="presentation" focusable="false" style="display: block; height: 24px; width: 24px; fill: currentcolor;"><path d="M2 31a1 1 0 0 1-1-1 9 9 0 0 1 17.945-1H21c.736 0 1.428-.265 1.971-.739a2.99 2.99 0 0 0 1.022-2.06L24 26V14H13v6h-2v-7a1 1 0 0 1 .883-.993L12 12h13a1 1 0 0 1 .993.883L26 13v2h4a1 1 0 0 1 .993.883L31 16v9a1 1 0 0 1-.883.993L30 26h-4a4.99 4.99 0 0 1-1.714 3.768 4.982 4.982 0 0 1-3.025 1.225L21 31zm3.85-6.637a7.003 7.003 0 0 0-2.693 4.154l-.058.301-.028.182h4.103zM10 23c-.823 0-1.612.142-2.346.403L9.254 29h1.491l1.6-5.598a6.968 6.968 0 0 0-1.854-.385l-.25-.013zm4.151 1.363L12.825 29h4.103l-.027-.182a6.999 6.999 0 0 0-2.75-4.455zM29 17h-3v7h3zM19.994 1c-.002 2.062-.471 3.344-1.765 5.424l-.753 1.183C16.61 8.998 16.198 9.908 16.058 11h-2.015c.15-1.613.708-2.836 1.91-4.728l.563-.88C17.632 3.6 17.993 2.607 17.994.998zm5 0c-.002 2.062-.471 3.344-1.765 5.424l-.753 1.183C21.61 8.998 21.198 9.908 21.058 11h-2.015c.15-1.613.708-2.836 1.91-4.728l.563-.88C22.632 3.6 22.993 2.607 22.994.998z"/></svg>