<svg viewBox="0 0 32 32" xmlns="http://www.w3.org/2000/svg" aria-hidden="true" role="presentation" focusable="false" style="display: block; height: 24px; width: 24px; fill: currentcolor;"><path d="M21 3a2 2 0 0 1 1.995 1.85L23 5v7a6.996 6.996 0 0 1-2.226 5.12l-.2.181-.023.018.28.108a13.014 13.014 0 0 1 8.083 10.574h-2.016c-.634-4.631-4.16-8.401-8.789-9.298l-.109-.02.001-2.1a5.003 5.003 0 0 0 2.978-4.128l.016-.227L21 12l-.001-3h-10L11 12a5 5 0 0 0 3 4.583v2.098a10.922 10.922 0 0 0-3.001 1.017L11 28H9v-6.987a11.009 11.009 0 0 0-3.898 6.988L3.086 28a13.018 13.018 0 0 1 7.795-10.455l.288-.119.279-.109-.232-.206a6.995 6.995 0 0 1-2.193-4.543l-.018-.296L9 12V5a2 2 0 0 1 1.85-1.995L11 3zm-3 23a1 1 0 1 1 0 2 1 1 0 0 1 0-2zm-4 0a1 1 0 1 1 0 2 1 1 0 0 1 0-2zm4-4a1 1 0 1 1 0 2 1 1 0 0 1 0-2zm-4 0a1 1 0 1 1 0 2 1 1 0 0 1 0-2zm7-17H11l-.001 2h10z"/></svg>