<svg viewBox="0 0 32 32" xmlns="http://www.w3.org/2000/svg" aria-hidden="true" role="presentation" focusable="false" style="display: block; height: 24px; width: 24px; fill: currentcolor;"><path d="M10.999 15.242l2 2v1.535l-.427.298a6 6 0 1 0 9.112 6.851l1.532 1.532a8 8 0 1 1-12.467-9.494l.25-.209v-2.513zM3.707 2.292l26 26-1.414 1.415-26-26 1.414-1.414zM15 19.244l4.993 4.993A4 4 0 1 1 15 20.126v-.883zM16 22a2 2 0 1 0 0 4 2 2 0 0 0 0-4zm0-22a5 5 0 0 1 4.995 4.783L21 5l.001 11.758L19 14.757V11h-3.756L15 10.756V9h4V7h-4V5h4a3 3 0 0 0-5.995-.176L13 5v3.756l-2-2V5A5 5 0 0 1 15.563.019l.22-.014L16 0z"/></svg>