<svg viewBox="0 0 32 32" xmlns="http://www.w3.org/2000/svg" aria-hidden="true" role="presentation" focusable="false" style="display: block; height: 24px; width: 24px; fill: currentcolor;"><path d="M31 2v2h-2.343a3 3 0 0 0-1.977.743l-.144.136-.536.534V19a4.979 4.979 0 0 1-1.082 3.107A3.999 3.999 0 0 1 24 30a4 4 0 0 1-3.465-6h-9.07a4 4 0 1 1-5.297-1.557l.058-.077.067-.073L10.584 18H8.999a3 3 0 0 0-1.976.743l-.145.136-3.829 3.829-1.414-1.414 3.829-3.83a5 5 0 0 1 3.271-1.457L8.999 16h3.585l4.192-4.19A4.002 4.002 0 0 1 18 4a4.002 4.002 0 0 1 3.81 2.776l3.311-3.312a5 5 0 0 1 3.271-1.457L28.657 2zm-7 22a2 2 0 1 0 0 4 2 2 0 0 0 0-4zM8 24a2 2 0 1 0 0 4 2 2 0 0 0 0-4zm16-5V7.414L9.414 22H21a3 3 0 0 0 2.98-2.65l.015-.174zM18 6a2 2 0 1 0 .15.005z"/></svg>