<svg viewBox="0 0 32 32" xmlns="http://www.w3.org/2000/svg" aria-hidden="true" role="presentation" focusable="false" style="display: block; height: 24px; width: 24px; fill: currentcolor;"><path d="M23 3a2 2 0 0 1 1.995 1.85L25 5v1.522l5-1.999v11.954l-5-2V16a2 2 0 0 1-1.85 1.995L23 18l-6.1.001a5.005 5.005 0 0 1-3.984 3.915 5.002 5.002 0 0 1-4.7 4.08L8 26H4v4H2V20h2v4h4a3.001 3.001 0 0 0 2.872-2.13A5.004 5.004 0 0 1 7.1 18.002L4 18a2 2 0 0 1-1.995-1.85L2 16V5a2 2 0 0 1 1.85-1.995L4 3zM12 14a3 3 0 1 0 0 6 3 3 0 0 0 0-6zm11-9H4v11h3.1a5.002 5.002 0 0 1 9.8 0H23zm5 2.476l-3 1.2v3.647l3 1.2zM7 7a1 1 0 1 1 0 2 1 1 0 0 1 0-2z"/></svg>