<svg viewBox="0 0 32 32" xmlns="http://www.w3.org/2000/svg" aria-hidden="true" role="presentation" focusable="false" style="display: block; height: 24px; width: 24px; fill: currentcolor;"><path d="M16 1c8.284 0 15 6.716 15 15 0 8.284-6.716 15-15 15-8.284 0-15-6.716-15-15C1 7.716 7.716 1 16 1zm0 2C8.82 3 3 8.82 3 16s5.82 13 13 13 13-5.82 13-13S23.18 3 16 3zm-4.9 14a5.006 5.006 0 0 0 3.9 3.9v2.03A7.005 7.005 0 0 1 9.071 17zm9.8 0l2.029.001a7.005 7.005 0 0 1-5.928 5.928v-2.03A5.006 5.006 0 0 0 20.9 17zM16 13a3 3 0 1 1 0 6 3 3 0 0 1 0-6zm0 2a1 1 0 1 0 0 2 1 1 0 0 0 0-2zm1.001-5.929A7.005 7.005 0 0 1 22.929 15H20.9A5.006 5.006 0 0 0 17 11.1zm-2.001 0v2.03A5.006 5.006 0 0 0 11.1 15H9.07A7.005 7.005 0 0 1 15 9.07zM23 8a1 1 0 1 1 0 2 1 1 0 0 1 0-2z"/></svg>