<svg viewBox="0 0 32 32" xmlns="http://www.w3.org/2000/svg" aria-hidden="true" role="presentation" focusable="false" style="display: block; height: 24px; width: 24px; fill: currentcolor;"><path d="M16 32c6.627 0 12-5.373 12-12 0-6.218-3.671-12.51-10.924-18.889L16 .18l-1.076.932C7.671 7.491 4 13.782 4 20c0 6.577 5.397 12 12 12zm0-2c-5.496 0-10-4.525-10-10 0-5.327 3.115-10.882 9.424-16.65l.407-.37.169-.149.576.518c6.043 5.526 9.156 10.855 9.407 15.977l.013.34L26 20c0 5.523-4.477 10-10 10zm-3.452-5.092a8.954 8.954 0 0 1 2.127-4.932l.232-.26.445-.462a6.973 6.973 0 0 0 1.827-4.416l.007-.306-.006-.307-.007-.11a6.03 6.03 0 0 0-2.009-.057 4.979 4.979 0 0 1-1.443 4.008 10.951 10.951 0 0 0-2.87 5.016 6.034 6.034 0 0 0 1.697 1.826zM16 26l.253-.005.25-.016-.003-.137c0-1.32.512-2.582 1.464-3.533a10.981 10.981 0 0 0 3.017-5.656 6.026 6.026 0 0 0-1.803-1.743 8.971 8.971 0 0 1-2.172 5.493l-.228.255-.444.462a6.96 6.96 0 0 0-1.827 4.415l-.006.276c.48.123.982.189 1.499.189z"/></svg>