<svg viewBox="0 0 32 32" xmlns="http://www.w3.org/2000/svg" aria-hidden="true" role="presentation" focusable="false" style="display: block; height: 24px; width: 24px; fill: currentcolor;"><path d="M20 1v2h-3v2h1a2 2 0 0 1 1.995 1.85L20 7v2a4 4 0 0 1 3.995 3.8L24 13v14a4 4 0 0 1-3.8 3.995L20 31h-8a4 4 0 0 1-3.995-3.8L8 27V13a4 4 0 0 1 3.8-3.995L12 9V7a2 2 0 0 1 1.85-1.995L14 5h1V3H8V1zm2 21H10v5a2 2 0 0 0 1.85 1.995L12 29h8a2 2 0 0 0 1.995-1.85L22 27zm0-6H10v4h12zm-2-5h-8a2 2 0 0 0-1.995 1.85L10 13v1h12v-1a2 2 0 0 0-2-2zm-2-4h-4v2h4z"/></svg>