<svg xmlns="http://www.w3.org/2000/svg" viewBox="0 0 45 45" width="45" height="45" preserveAspectRatio="xMidYMid meet" style="width: 100%; height: 100%; transform: translate3d(0px, 0px, 0px); content-visibility: visible;"><defs><clipPath id="__lottie_element_338"><rect width="45" height="45" x="0" y="0"/></clipPath></defs><g clip-path="url(#__lottie_element_338)"><g transform="matrix(1,0,0,1,1.75,7.877998352050781)" opacity="1" style="display: block;"><g opacity="1" transform="matrix(1,0,0,1,13.25,14.685999870300293)"><path fill="rgb(34,34,34)" fill-opacity="1" d=" M12.993000030517578,-4.679999828338623 C12.979999542236328,-4.795000076293945 12.946000099182129,-4.9079999923706055 12.894000053405762,-5.01200008392334 C12.894000053405762,-5.01200008392334 10.270000457763672,-10.260000228881836 10.270000457763672,-10.260000228881836 C10.270000457763672,-10.260000228881836 10.173999786376953,-10.435999870300293 10.173999786376953,-10.435999870300293 C9.803000450134277,-11.069999694824219 9.210000038146973,-11.54800033569336 8.506999969482422,-11.774999618530273 C8.506999969482422,-11.774999618530273 1.1430000066757202,-14.14799976348877 1.1430000066757202,-14.14799976348877 C1.1430000066757202,-14.14799976348877 1.0219999551773071,-14.196999549865723 1.0219999551773071,-14.196999549865723 C0.3619999885559082,-14.435999870300293 -0.3619999885559082,-14.435999870300293 -1.0219999551773071,-14.196999549865723 C-1.0219999551773071,-14.196999549865723 -1.1440000534057617,-14.14799976348877 -1.1440000534057617,-14.14799976348877 C-1.1440000534057617,-14.14799976348877 -8.506999969482422,-11.774999618530273 -8.506999969482422,-11.774999618530273 C-8.506999969482422,-11.774999618530273 -8.696000099182129,-11.706000328063965 -8.696000099182129,-11.706000328063965 C-9.378000259399414,-11.434000015258789 -9.9399995803833,-10.920999526977539 -10.270000457763672,-10.260000228881836 C-10.270000457763672,-10.260000228881836 -12.894000053405762,-5.01200008392334 -12.894000053405762,-5.01200008392334 C-12.894000053405762,-5.01200008392334 -12.9399995803833,-4.906000137329102 -12.9399995803833,-4.906000137329102 C-12.979999542236328,-4.796999931335449 -13,-4.679999828338623 -13,-4.564000129699707 C-13,-4.564000129699707 -13,12.435999870300293 -13,12.435999870300293 C-13,12.435999870300293 -12.994999885559082,12.585000038146973 -12.994999885559082,12.585000038146973 C-12.918000221252441,13.619999885559082 -12.053999900817871,14.435999870300293 -11,14.435999870300293 C-11,14.435999870300293 11,14.435999870300293 11,14.435999870300293 C11,14.435999870300293 11.14900016784668,14.430000305175781 11.14900016784668,14.430000305175781 C12.184000015258789,14.352999687194824 13,13.489999771118164 13,12.435999870300293 C13,12.435999870300293 13,-4.564000129699707 13,-4.564000129699707 C13,-4.564000129699707 12.993000030517578,-4.679999828338623 12.993000030517578,-4.679999828338623z M11,12.435999870300293 C11,12.435999870300293 -11,12.435999870300293 -11,12.435999870300293 C-11,12.435999870300293 -11,2.436000108718872 -11,2.436000108718872 C-11,2.436000108718872 11,2.436000108718872 11,2.436000108718872 C11,2.436000108718872 11,12.435999870300293 11,12.435999870300293z M11,0.4359999895095825 C11,0.4359999895095825 -11,0.4359999895095825 -11,0.4359999895095825 C-11,0.4359999895095825 -11,-4.328999996185303 -11,-4.328999996185303 C-11,-4.328999996185303 -8.480999946594238,-9.364999771118164 -8.480999946594238,-9.364999771118164 C-8.480999946594238,-9.364999771118164 -8.413999557495117,-9.482000350952148 -8.413999557495117,-9.482000350952148 C-8.288999557495117,-9.664999961853027 -8.107000350952148,-9.800999641418457 -7.894000053405762,-9.869999885559082 C-7.894000053405762,-9.869999885559082 -0.5049999952316284,-12.25100040435791 -0.5049999952316284,-12.25100040435791 C-0.5049999952316284,-12.25100040435791 -0.2930000126361847,-12.331000328063965 -0.2930000126361847,-12.331000328063965 C-0.06400000303983688,-12.402000427246094 0.1850000023841858,-12.388999938964844 0.4059999883174896,-12.289999961853027 C0.4059999883174896,-12.289999961853027 0.5049999952316284,-12.25100040435791 0.5049999952316284,-12.25100040435791 C0.5049999952316284,-12.25100040435791 7.894000053405762,-9.869999885559082 7.894000053405762,-9.869999885559082 C7.894000053405762,-9.869999885559082 8.017999649047852,-9.821999549865723 8.017999649047852,-9.821999549865723 C8.217000007629395,-9.72599983215332 8.380999565124512,-9.565999984741211 8.480999946594238,-9.364999771118164 C8.480999946594238,-9.364999771118164 11,-4.327000141143799 11,-4.327000141143799 C11,-4.327000141143799 11,0.4359999895095825 11,0.4359999895095825z"/></g><g opacity="1" transform="matrix(1,0,0,1,13.25,9.621000289916992)"><path fill="rgb(34,34,34)" fill-opacity="1" d=" M3,-3.5 C3,-3.5 -3,-3.5 -3,-3.5 C-3,-3.5 -3.117000102996826,-3.493000030517578 -3.117000102996826,-3.493000030517578 C-3.614000082015991,-3.436000108718872 -4,-3.013000011444092 -4,-2.5 C-4,-2.5 -4,2.5 -4,2.5 C-4,2.5 -3.993000030517578,2.617000102996826 -3.993000030517578,2.617000102996826 C-3.934999942779541,3.114000082015991 -3.513000011444092,3.5 -3,3.5 C-3,3.5 3,3.5 3,3.5 C3,3.5 3.117000102996826,3.493000030517578 3.117000102996826,3.493000030517578 C3.614000082015991,3.434999942779541 4,3.013000011444092 4,2.5 C4,2.5 4,-2.5 4,-2.5 C4,-2.5 3.993000030517578,-2.617000102996826 3.993000030517578,-2.617000102996826 C3.934999942779541,-3.114000082015991 3.513000011444092,-3.5 3,-3.5z M2,1.5 C2,1.5 -2,1.5 -2,1.5 C-2,1.5 -2,-1.5 -2,-1.5 C-2,-1.5 2,-1.5 2,-1.5 C2,-1.5 2,1.5 2,1.5z"/></g></g><g transform="matrix(1,0,0,1,14.75,22.5)" opacity="1" style="display: block;"><g opacity="1" transform="matrix(1,0,0,1,0,0)"><path stroke-linecap="butt" stroke-linejoin="miter" fill-opacity="0" stroke-miterlimit="4" stroke="rgb(34,34,34)" stroke-opacity="1" stroke-width="2" d=" M-5.75,1.625 C-5.75,1.625 -5.75,12.5 -5.75,12.5"/></g></g><g transform="matrix(1,0,0,1,7.584999084472656,22.60399627685547)" opacity="1" style="display: block;"><g opacity="1" transform="matrix(1,0,0,1,7.415999889373779,7.4019999504089355)"><path stroke-linecap="round" stroke-linejoin="round" fill-opacity="0" stroke="rgb(34,34,34)" stroke-opacity="1" stroke-width="1.998" d=" M6.002999782562256,5.989999771118164 C6.002999782562256,5.989999771118164 5.26800012588501,5.989999771118164 5.26800012588501,5.989999771118164 C5.26800012588501,5.989999771118164 -6.002999782562256,5.989999771118164 -6.002999782562256,5.989999771118164 C-6.002999782562256,5.989999771118164 -6.002999782562256,-5.989999771118164 -6.002999782562256,-5.989999771118164 C-6.002999782562256,-5.989999771118164 6.002999782562256,-5.989999771118164 6.002999782562256,-5.989999771118164 C6.002999782562256,-5.989999771118164 6.002999782562256,4.624000072479248 6.002999782562256,4.624000072479248 C6.002999782562256,4.624000072479248 6.002999782562256,5.989999771118164 6.002999782562256,5.989999771118164z"/></g><g opacity="1" transform="matrix(1,0,0,1,7.415999889373779,7.4029998779296875)"><path stroke-linecap="butt" stroke-linejoin="miter" fill-opacity="0" stroke-miterlimit="10" stroke="rgb(34,34,34)" stroke-opacity="1" stroke-width="1.998" d=" M-6.002999782562256,-5.989999771118164 C-6.002999782562256,-5.989999771118164 6.002999782562256,5.989999771118164 6.002999782562256,5.989999771118164"/></g><g opacity="1" transform="matrix(1,0,0,1,7.415999889373779,7.4029998779296875)"><path stroke-linecap="butt" stroke-linejoin="miter" fill-opacity="0" stroke-miterlimit="10" stroke="rgb(34,34,34)" stroke-opacity="1" stroke-width="1.998" d=" M6.002999782562256,-5.989999771118164 C6.002999782562256,-5.989999771118164 -6.002999782562256,5.989999771118164 -6.002999782562256,5.989999771118164"/></g></g><g style="display: none;"><rect width="120" height="120" fill="#ffffff"/></g></g></svg>