<svg xmlns="http://www.w3.org/2000/svg" viewBox="0 0 45 45" width="45" height="45" preserveAspectRatio="xMidYMid meet" style="width: 100%; height: 100%; transform: translate3d(0px, 0px, 0px); content-visibility: visible;"><defs><clipPath id="__lottie_element_207"><rect width="45" height="45" x="0" y="0"/></clipPath></defs><g clip-path="url(#__lottie_element_207)"><g transform="matrix(1,0,0,1,1.875,8.5)" opacity="1" style="display: block;"><g opacity="1" transform="matrix(1,0,0,1,14,14)"><path fill="rgb(34,34,34)" fill-opacity="1" d=" M-7.5,-14 C-5.085999965667725,-14 -3.115000009536743,-12.098999977111816 -3.005000114440918,-9.711999893188477 C-3.005000114440918,-9.711999893188477 -3,-9.5 -3,-9.5 C-3,-9.5 -3,-4.802000045776367 -3,-4.802000045776367 C-3,-4.802000045776367 2.4049999713897705,-8.803999900817871 2.4049999713897705,-8.803999900817871 C2.7330000400543213,-9.04699993133545 3.171999931335449,-9.062999725341797 3.5139999389648438,-8.857999801635742 C3.5139999389648438,-8.857999801635742 3.625,-8.781000137329102 3.625,-8.781000137329102 C3.625,-8.781000137329102 9,-4.480000019073486 9,-4.480000019073486 C9,-4.480000019073486 9,-8 9,-8 C9,-8 11,-8 11,-8 C11,-8 11,-2.880000114440918 11,-2.880000114440918 C11,-2.880000114440918 13.625,-0.781000018119812 13.625,-0.781000018119812 C13.625,-0.781000018119812 12.375,0.781000018119812 12.375,0.781000018119812 C12.375,0.781000018119812 11,-0.3199999928474426 11,-0.3199999928474426 C11,-0.3199999928474426 10.99899959564209,4 10.99899959564209,4 C10.99899959564209,4 13,4 13,4 C13.512999534606934,4 13.935999870300293,4.386000156402588 13.993000030517578,4.882999897003174 C13.993000030517578,4.882999897003174 14,5 14,5 C14,5 14,13 14,13 C14,13.512999534606934 13.61400032043457,13.935999870300293 13.116999626159668,13.993000030517578 C13.116999626159668,13.993000030517578 13,14 13,14 C13,14 -14,14 -14,14 C-14,14 -14,12 -14,12 C-14,12 -6.454999923706055,12 -6.454999923706055,12 C-6.454999923706055,12 -4.704999923706055,10 -4.704999923706055,10 C-4.704999923706055,10 -14,10 -14,10 C-14,10 -14,8 -14,8 C-14,8 -3,8 -3,8 C-3,8 -3,8.052000045776367 -3,8.052000045776367 C-3,8.052000045776367 -1.2050000429153442,6 -1.2050000429153442,6 C-1.2050000429153442,6 -14,6 -14,6 C-14,6 -14,4 -14,4 C-14,4 -12,4 -12,4 C-12,4 -12,-9.5 -12,-9.5 C-12,-11.984999656677246 -9.984999656677246,-14 -7.5,-14z M4.795000076293945,6 C4.795000076293945,6 1.4529999494552612,6 1.4529999494552612,6 C1.4529999494552612,6 -3.796999931335449,12 -3.796999931335449,12 C-3.796999931335449,12 -0.45500001311302185,12 -0.45500001311302185,12 C-0.45500001311302185,12 4.795000076293945,6 4.795000076293945,6z M12,7.659999847412109 C12,7.659999847412109 8.20300006866455,12 8.20300006866455,12 C8.20300006866455,12 12,12 12,12 C12,12 12,7.659999847412109 12,7.659999847412109z M10.795000076293945,6 C10.795000076293945,6 7.453000068664551,6 7.453000068664551,6 C7.453000068664551,6 2.203000068664551,12 2.203000068664551,12 C2.203000068664551,12 5.545000076293945,12 5.545000076293945,12 C5.545000076293945,12 10.795000076293945,6 10.795000076293945,6z M9,-1.9199999570846558 C9,-1.9199999570846558 2.9760000705718994,-6.738999843597412 2.9760000705718994,-6.738999843597412 C2.9760000705718994,-6.738999843597412 -3,-2.312999963760376 -3,-2.312999963760376 C-3,-2.312999963760376 -3,4 -3,4 C-3,4 -0.0010000000474974513,4 -0.0010000000474974513,4 C-0.0010000000474974513,4 0,0 0,0 C0,-0.5130000114440918 0.38600000739097595,-0.9359999895095825 0.8830000162124634,-0.9929999709129333 C0.8830000162124634,-0.9929999709129333 1,-1 1,-1 C1,-1 5,-1 5,-1 C5.513000011444092,-1 5.935999870300293,-0.6140000224113464 5.993000030517578,-0.11699999868869781 C5.993000030517578,-0.11699999868869781 6,0 6,0 C6,0 5.999000072479248,4 5.999000072479248,4 C5.999000072479248,4 8.99899959564209,4 8.99899959564209,4 C8.99899959564209,4 9,-1.9199999570846558 9,-1.9199999570846558z M-7.5,-12 C-8.824999809265137,-12 -9.90999984741211,-10.968000411987305 -9.994999885559082,-9.663999557495117 C-9.994999885559082,-9.663999557495117 -10,-9.5 -10,-9.5 C-10,-9.5 -10,4 -10,4 C-10,4 -5,4 -5,4 C-5,4 -5,-9.5 -5,-9.5 C-5,-10.880999565124512 -6.11899995803833,-12 -7.5,-12z M4,1 C4,1 2,1 2,1 C2,1 2,4 2,4 C2,4 4,4 4,4 C4,4 4,1 4,1z"/></g></g><g style="display: none;"><rect width="120" height="120" fill="#ffffff"/></g></g></svg>