<svg viewBox="0 0 20 12" xmlns="http://www.w3.org/2000/svg"><g transform="translate(.555)" fill="none"><path fill="#F26122" d="M6.70926937 1.2832L12.3882694 1.2832 12.3882694 10.7165 6.70926937 10.7165z"/><path d="M9.524 10.717A5.789 5.789 0 0 1 5.891 12a5.943 5.943 0 0 1-5.89-6 5.944 5.944 0 0 1 5.89-6c1.322 0 2.604.453 3.633 1.283a6.081 6.081 0 0 0 0 9.434z" fill="#EA1D25"/><path d="M19.064 6a5.944 5.944 0 0 1-5.89 6 5.79 5.79 0 0 1-3.634-1.283 6.082 6.082 0 0 0 0-9.434A5.789 5.789 0 0 1 13.173 0a5.943 5.943 0 0 1 5.891 6z" fill="#F69E1E"/></g></svg>
